HIERARCHY
ROOT root
{
	OFFSET	0	13.1	24.9
	CHANNELS 6  Xposition Yposition Zposition Xrotation Yrotation Zrotation
	JOINT spine_1
	{
		OFFSET	0	9.99999	0
		CHANNELS 3  Xrotation Yrotation Zrotation
		JOINT spine_2
		{
			OFFSET	0	112	-10
			CHANNELS 3  Xrotation Yrotation Zrotation
			JOINT spine_3
			{
				OFFSET	0	206.5	19.3
				CHANNELS 3  Xrotation Yrotation Zrotation
				JOINT spine_4
				{
					OFFSET	0	110.4	14.6
					CHANNELS 3  Xrotation Yrotation Zrotation
					JOINT neck_1
					{
						OFFSET	0	71.8	-50.3
						CHANNELS 3  Xrotation Yrotation Zrotation
						JOINT neck_2
						{
							OFFSET	0	86.2	-25.8
							CHANNELS 3  Xrotation Yrotation Zrotation
							JOINT head_ee
							{
								OFFSET	0	179.8	-8.7
								CHANNELS 3  Xrotation Yrotation Zrotation
								End Site
								{
									OFFSET	1	0	0
								}
							}
						}
					}
					JOINT left_clavicle
					{
						OFFSET	-43.2	22.4	-70.8
						CHANNELS 3  Xrotation Yrotation Zrotation
						JOINT left_shoulder
						{
							OFFSET	-93.9	-5.79999	48.7
							CHANNELS 3  Xrotation Yrotation Zrotation
							JOINT left_elbow
							{
								OFFSET	-291.4	-30.8	15.2
								CHANNELS 3  Xrotation Yrotation Zrotation
								JOINT left_lowarm_twist
								{
									OFFSET	-110.7	-3.89999	13.6
									CHANNELS 3  Xrotation Yrotation Zrotation
									JOINT left_hand
									{
										OFFSET	-110.7	-3.89999	13.6
										CHANNELS 3  Xrotation Yrotation Zrotation
										JOINT left_ee
										{
											OFFSET	-80.8	-5.10001	12.1
											CHANNELS 3  Xrotation Yrotation Zrotation
											End Site
											{
												OFFSET	1	0	0
											}
										}
									}
								}
							}
						}
					}
					JOINT right_clavicle
					{
						OFFSET	43.2	22.4	-70.8
						CHANNELS 3  Xrotation Yrotation Zrotation
						JOINT right_shoulder
						{
							OFFSET	93.9	-5.79999	48.7
							CHANNELS 3  Xrotation Yrotation Zrotation
							JOINT right_elbow
							{
								OFFSET	291.4	-30.8	15.2
								CHANNELS 3  Xrotation Yrotation Zrotation
								JOINT right_lowarm_twist
								{
									OFFSET	110.7	-3.89999	13.6
									CHANNELS 3  Xrotation Yrotation Zrotation
									JOINT right_hand
									{
										OFFSET	110.7	-3.89999	13.6
										CHANNELS 3  Xrotation Yrotation Zrotation
										JOINT right_ee
										{
											OFFSET	80.8	-5.10001	12.1
											CHANNELS 3  Xrotation Yrotation Zrotation
											End Site
											{
												OFFSET	1	0	0
											}
										}
									}
								}
							}
						}
					}
				}
			}
		}
	}
	JOINT left_hip
	{
		OFFSET	-82.8	-127.5	0.300001
		CHANNELS 3  Xrotation Yrotation Zrotation
		JOINT left_knee
		{
			OFFSET	-28.2	-396.7	2.2
			CHANNELS 3  Xrotation Yrotation Zrotation
			JOINT left_ankle
			{
				OFFSET	-11.7	-411.3	35.4
				CHANNELS 3  Xrotation Yrotation Zrotation
				JOINT left_toes
				{
					OFFSET	0	-60	-88.6
					CHANNELS 3  Xrotation Yrotation Zrotation
					JOINT left_foot_ee
					{
						OFFSET	-22.5	-16.5	-42.2
						CHANNELS 3  Xrotation Yrotation Zrotation
						End Site
						{
							OFFSET	1	0	0
						}
					}
				}
			}
		}
	}
	JOINT right_hip
	{
		OFFSET	82.8	-127.5	0.300001
		CHANNELS 3  Xrotation Yrotation Zrotation
		JOINT right_knee
		{
			OFFSET	28.2	-396.7	2.2
			CHANNELS 3  Xrotation Yrotation Zrotation
			JOINT right_ankle
			{
				OFFSET	11.7	-411.3	35.4
				CHANNELS 3  Xrotation Yrotation Zrotation
				JOINT right_toes
				{
					OFFSET	0	-60	-88.6
					CHANNELS 3  Xrotation Yrotation Zrotation
					JOINT right_foot_ee
					{
						OFFSET	22.5	-16.5	-42.2
						CHANNELS 3  Xrotation Yrotation Zrotation
						End Site
						{
							OFFSET	1	0	0
						}
					}
				}
			}
		}
	}
}
MOTION
Frames: 10
Frame Time: 0.02
1372.05 701.618 -1475.22 -15.142367064 26.9853248591 7.16684405616 5.46786 -0.12875 -0.538126 5.46801 -0.0942472 -0.545228 5.46875 -0.0303416 -0.552481 5.46835 -0.117214 -0.540756 -14.8742 7.53917 0.699694 -15.0416 13.999 3.16941 -0.0 0.0 -0.0 4.32118 12.3916 8.69199 -8.16074 -29.5004 54.7918 2.09036 -45.9936 0.887248 -15.2469 -0.779255 1.78128 -3.57913 18.8966 -13.9896 -0.0 0.0 -0.0 6.65477 7.69021 -12.7505 -34.5535 10.3648 -64.3365 0.472391 13.1709 -0.0545363 39.2243 0.309533 4.90456 0.111066 -20.6718 -8.99045 0.0 0.0 0.0 6.32548 -6.89332 8.42229 -15.0277 0.321717 2.27713 42.4661 22.824 -5.32789 -14.0497 0.0 0.0 -0.0 0.0 -0.0 44.4717 25.8601 -4.52859 3.80761 0.17542 0.557776 -15.677 -19.2433 -2.39136 -9.94076 0.0 0.0 0.0 0.0 0.0 
1341.81382362 701.936 -1531.68227408 -13.7329853947 31.7959832028 8.16230424052 5.23177 -0.169775 -0.56412 5.23194 -0.133535 -0.573779 5.23312 -0.0636445 -0.585665 5.23267 -0.155339 -0.568264 -13.024 6.92966 -0.234516 -13.1396 13.3299 1.86015 -0.0 0.0 -0.0 4.29439 11.1019 8.62797 -12.3534 -27.7769 55.2046 1.92779 -43.6759 0.772604 -14.9156 -0.757366 1.74496 -2.81198 19.125 -9.15125 -0.0 0.0 -0.0 7.29889 9.77689 -14.0291 -34.0369 10.1491 -66.1242 0.507792 14.1197 -0.0628882 40.4114 0.370832 5.04345 -0.0690827 -26.7341 -10.1596 0.0 0.0 0.0 1.12098 -11.2755 6.19303 -13.1217 0.314165 1.98481 41.5829 23.5173 -5.26931 -13.6341 0.0 0.0 -0.0 0.0 -0.0 45.8502 25.2886 -6.60238 -9.45866 -0.272381 -1.42441 -9.32963 -13.5923 -1.39474 -6.99387 0.0 0.0 0.0 0.0 0.0 
1342.55800942 701.936 -1532.07452706 -13.6242277615 31.0647797084 7.95374580592 5.23177 -0.169775 -0.56412 5.23194 -0.133535 -0.573779 5.23312 -0.0636445 -0.585665 5.23267 -0.155339 -0.568264 -13.024 6.92966 -0.234516 -13.1396 13.3299 1.86015 -0.0 0.0 -0.0 4.29439 11.1019 8.62797 -12.3534 -27.7769 55.2046 1.92779 -43.6759 0.772604 -14.9156 -0.757366 1.74496 -2.81198 19.125 -9.15125 -0.0 0.0 -0.0 7.29889 9.77689 -14.0291 -34.0369 10.1491 -66.1242 0.507792 14.1197 -0.0628882 40.4114 0.370832 5.04345 -0.0690827 -26.7341 -10.1596 0.0 0.0 0.0 1.12098 -11.2755 6.19303 -13.1217 0.314165 1.98481 41.5829 23.5173 -5.26931 -13.6341 0.0 0.0 -0.0 0.0 -0.0 45.8502 25.2886 -6.60238 -9.45866 -0.272381 -1.42441 -9.32963 -13.5923 -1.39474 -6.99387 0.0 0.0 0.0 0.0 0.0 
1343.3005751 701.936 -1532.4536031 -13.5202943391 30.3397745782 7.75018935345 5.23177 -0.169775 -0.56412 5.23194 -0.133535 -0.573779 5.23312 -0.0636445 -0.585665 5.23267 -0.155339 -0.568264 -13.024 6.92966 -0.234516 -13.1396 13.3299 1.86015 -0.0 0.0 -0.0 4.29439 11.1019 8.62797 -12.3534 -27.7769 55.2046 1.92779 -43.6759 0.772604 -14.9156 -0.757366 1.74496 -2.81198 19.125 -9.15125 -0.0 0.0 -0.0 7.29889 9.77689 -14.0291 -34.0369 10.1491 -66.1242 0.507792 14.1197 -0.0628882 40.4114 0.370832 5.04345 -0.0690827 -26.7341 -10.1596 0.0 0.0 0.0 1.12098 -11.2755 6.19303 -13.1217 0.314165 1.98481 41.5829 23.5173 -5.26931 -13.6341 0.0 0.0 -0.0 0.0 -0.0 45.8502 25.2886 -6.60238 -9.45866 -0.272381 -1.42441 -9.32963 -13.5923 -1.39474 -6.99387 0.0 0.0 0.0 0.0 0.0 
1290.13745511 712.127 -1594.76012905 -14.0794673366 36.714079124 8.10060854832 5.04724 0.0933918 -0.428793 5.04733 0.120487 -0.421981 5.04637 0.171628 -0.403893 5.04616 0.105688 -0.425929 -11.3552 6.57464 -0.748841 -11.4306 12.9287 1.06943 -0.0 0.0 -0.0 4.23596 12.6251 8.55138 -17.5951 -26.5525 58.211 1.57777 -38.0077 0.543419 -14.1839 -0.709761 1.66431 -2.58702 19.7026 -7.48495 -0.0 0.0 -0.0 7.66437 11.8291 -14.7269 -30.7658 11.1484 -66.6069 0.581191 16.0615 -0.082 40.6351 0.382709 5.06949 -0.0224145 -25.5471 -9.99596 0.0 0.0 0.0 3.04871 -10.2453 6.25729 -20.2199 0.29296 3.07299 39.6611 23.5204 -5.08955 -14.1406 0.0 0.0 -0.0 0.0 -0.0 42.9998 23.221 -6.07707 -13.4793 -0.316323 -2.03963 -13.4697 -12.3057 -2.02019 -7.71224 0.0 0.0 0.0 0.0 0.0 
1292.19145928 712.127 -1596.14196218 -13.9059949594 35.7643150544 7.80717380865 5.04724 0.0933918 -0.428793 5.04733 0.120487 -0.421981 5.04637 0.171628 -0.403893 5.04616 0.105688 -0.425929 -11.3552 6.57464 -0.748841 -11.4306 12.9287 1.06943 -0.0 0.0 -0.0 4.23596 12.6251 8.55138 -17.5951 -26.5525 58.211 1.57777 -38.0077 0.543419 -14.1839 -0.709761 1.66431 -2.58702 19.7026 -7.48495 -0.0 0.0 -0.0 7.66437 11.8291 -14.7269 -30.7658 11.1484 -66.6069 0.581191 16.0615 -0.082 40.6351 0.382709 5.06949 -0.0224145 -25.5471 -9.99596 0.0 0.0 0.0 3.04871 -10.2453 6.25729 -20.2199 0.29296 3.07299 39.6611 23.5204 -5.08955 -14.1406 0.0 0.0 -0.0 0.0 -0.0 42.9998 23.221 -6.07707 -13.4793 -0.316323 -2.03963 -13.4697 -12.3057 -2.02019 -7.71224 0.0 0.0 0.0 0.0 0.0 
1275.12985688 717.864 -1616.86682087 -13.7124536365 36.4520263495 7.30311063817 4.90223 0.205897 -0.102138 4.90221 0.211979 -0.088829 4.9019 0.221473 -0.0614411 4.90195 0.20899 -0.0956477 -11.0554 6.40805 -0.885891 -11.1217 12.6942 0.857545 -0.0 0.0 -0.0 3.98142 13.0238 8.13127 -19.6562 -25.8446 57.8981 1.47812 -36.21 0.483292 -13.8749 -0.68997 1.63007 -2.46076 20.2246 -6.45705 -0.0 0.0 -0.0 7.86172 12.1751 -15.1362 -29.5572 11.4006 -66.6839 0.590377 16.302 -0.08456 40.6341 0.382654 5.06937 -0.0383596 -24.5632 -9.54689 0.0 0.0 0.0 3.94103 -9.62225 5.99222 -21.4232 0.27601 3.25686 38.565 23.3237 -4.9779 -14.4463 0.0 0.0 -0.0 0.0 -0.0 41.6507 22.1904 -5.82782 -14.5088 -0.320624 -2.19752 -14.7484 -10.3098 -2.2111 -7.88619 0.0 0.0 0.0 0.0 0.0 
1279.41336336 717.864 -1619.70456512 -13.4241263297 34.7845326759 6.8080825942 4.90223 0.205897 -0.102138 4.90221 0.211979 -0.088829 4.9019 0.221473 -0.0614411 4.90195 0.20899 -0.0956477 -11.0554 6.40805 -0.885891 -11.1217 12.6942 0.857545 -0.0 0.0 -0.0 3.98142 13.0238 8.13127 -19.6562 -25.8446 57.8981 1.47812 -36.21 0.483292 -13.8749 -0.68997 1.63007 -2.46076 20.2246 -6.45705 -0.0 0.0 -0.0 7.86172 12.1751 -15.1362 -29.5572 11.4006 -66.6839 0.590377 16.302 -0.08456 40.6341 0.382654 5.06937 -0.0383596 -24.5632 -9.54689 0.0 0.0 0.0 3.94103 -9.62225 5.99222 -21.4232 0.27601 3.25686 38.565 23.3237 -4.9779 -14.4463 0.0 0.0 -0.0 0.0 -0.0 41.6507 22.1904 -5.82782 -14.5088 -0.320624 -2.19752 -14.7484 -10.3098 -2.2111 -7.88619 0.0 0.0 0.0 0.0 0.0 
1270.04144693 720.062 -1638.93839144 -13.9283825804 35.1335101943 7.02662655921 4.83151 0.0920991 0.127457 4.83151 0.0838021 0.133059 4.8317 0.0662135 0.14263 4.83168 0.0879082 0.130383 -10.9307 6.34735 -1.16972 -10.9935 12.763 0.552676 -0.0 0.0 -0.0 3.87475 11.9431 7.92873 -20.8816 -25.6237 58.7381 1.27928 -32.3617 0.371215 -13.1319 -0.643141 1.54732 -2.32768 20.0282 -5.76386 -0.0 0.0 -0.0 7.47434 13.7335 -14.2274 -26.4749 12.3955 -67.0215 0.650912 17.8716 -0.102348 40.6629 0.38419 5.07272 -0.0868291 -24.6836 -9.31239 0.0 0.0 0.0 5.85049 -9.05031 5.22375 -24.6663 0.211142 3.75022 37.6212 23.1638 -4.88036 -14.6793 0.0 0.0 -0.0 0.0 -0.0 40.5386 21.6142 -5.95197 -14.267 -0.319869 -2.16043 -15.6831 -9.8601 -2.35258 -8.12764 0.0 0.0 0.0 0.0 0.0 
1262.74687439 722.49 -1657.52821428 -14.0045483013 34.1885532203 6.80806279926 4.80407 0.134132 0.312097 4.80412 0.114001 0.319999 4.80472 0.0722557 0.331926 4.80458 0.12377 0.316349 -11.421 5.90309 -0.831077 -11.4828 11.7133 0.811075 -0.0 0.0 -0.0 4.04801 11.4961 8.21332 -22.0197 -24.8693 59.1458 1.01187 -26.6217 0.239404 -10.2791 -0.473441 1.2242 -1.70166 19.2618 -2.40143 -0.0 0.0 -0.0 7.51639 13.7453 -14.3175 -21.2969 13.3318 -66.8602 0.671038 18.3875 -0.108611 40.3302 0.366546 5.03399 -0.575023 -24.8185 -6.57487 0.0 0.0 0.0 9.1012 -7.47334 4.36362 -30.459 0.0262126 4.61962 35.2454 26.0023 -4.71758 -14.767 0.0 0.0 -0.0 0.0 -0.0 39.1547 20.449 -7.06312 -13.8644 -0.318265 -2.09869 -10.5812 -9.00181 -1.57871 -7.9047 0.0 0.0 0.0 0.0 0.0 
